<svg width="200" height="200" viewBox="0 0 200 200" fill="none" xmlns="http://www.w3.org/2000/svg">
<mask id="path-1-inside-1" fill="white">
<path fill-rule="evenodd" clip-rule="evenodd" d="M200 100C200 155.228 155.228 200 100 200V145H153V141H100V0C155.228 0 200 44.7715 200 100ZM134.806 75.0487C137.091 70.0282 139.589 60.3125 142.174 43.9641L145.137 44.4327C142.551 60.7865 140.007 70.8643 137.536 76.2919C136.913 77.6609 136.272 78.7839 135.604 79.6536C134.943 80.5151 134.195 81.2055 133.334 81.5927C132.425 82.0013 131.475 82.0312 130.572 81.6982C129.718 81.3833 129.001 80.7808 128.401 80.0858C127.213 78.7085 126.184 76.611 125.277 74.174C124.358 71.7032 123.515 68.7461 122.754 65.5419C121.233 59.1312 120.014 51.6239 119.171 44.8131L122.148 44.4446C122.983 51.188 124.185 58.5796 125.673 64.849C126.418 67.9849 127.228 70.8132 128.089 73.1277C128.963 75.476 129.843 77.1638 130.673 78.1262C131.082 78.601 131.402 78.807 131.61 78.8835C131.768 78.9419 131.904 78.9462 132.104 78.8564C132.351 78.7452 132.735 78.4645 133.225 77.8265C133.708 77.1967 134.24 76.2917 134.806 75.0487Z"/>
</mask>
<path fill-rule="evenodd" clip-rule="evenodd" d="M200 100C200 155.228 155.228 200 100 200V145H153V141H100V0C155.228 0 200 44.7715 200 100ZM134.806 75.0487C137.091 70.0282 139.589 60.3125 142.174 43.9641L145.137 44.4327C142.551 60.7865 140.007 70.8643 137.536 76.2919C136.913 77.6609 136.272 78.7839 135.604 79.6536C134.943 80.5151 134.195 81.2055 133.334 81.5927C132.425 82.0013 131.475 82.0312 130.572 81.6982C129.718 81.3833 129.001 80.7808 128.401 80.0858C127.213 78.7085 126.184 76.611 125.277 74.174C124.358 71.7032 123.515 68.7461 122.754 65.5419C121.233 59.1312 120.014 51.6239 119.171 44.8131L122.148 44.4446C122.983 51.188 124.185 58.5796 125.673 64.849C126.418 67.9849 127.228 70.8132 128.089 73.1277C128.963 75.476 129.843 77.1638 130.673 78.1262C131.082 78.601 131.402 78.807 131.61 78.8835C131.768 78.9419 131.904 78.9462 132.104 78.8564C132.351 78.7452 132.735 78.4645 133.225 77.8265C133.708 77.1967 134.24 76.2917 134.806 75.0487Z" fill="#BDC1A2"/>
<path d="M100 200H99V201H100V200ZM100 145V144H99V145H100ZM153 145V146H154V145H153ZM153 141H154V140H153V141ZM100 141H99V142H100V141ZM100 0V-1H99V0H100ZM142.174 43.9641L142.33 42.9764L141.342 42.8202L141.186 43.8079L142.174 43.9641ZM134.806 75.0487L135.716 75.4631L134.806 75.0487ZM145.137 44.4327L146.125 44.5889L146.281 43.6012L145.293 43.445L145.137 44.4327ZM137.536 76.2919L136.626 75.8775L137.536 76.2919ZM135.604 79.6536L134.811 79.0446L135.604 79.6536ZM133.334 81.5927L133.744 82.5048H133.744L133.334 81.5927ZM130.572 81.6982L130.918 80.76H130.918L130.572 81.6982ZM128.401 80.0858L127.644 80.7389H127.644L128.401 80.0858ZM125.277 74.174L124.34 74.5228V74.5228L125.277 74.174ZM122.754 65.5419L123.727 65.311L122.754 65.5419ZM119.171 44.8131L119.048 43.8207L118.056 43.9435L118.179 44.936L119.171 44.8131ZM122.148 44.4446L123.141 44.3218L123.018 43.3293L122.025 43.4522L122.148 44.4446ZM125.673 64.849L126.646 64.618L125.673 64.849ZM128.089 73.1277L127.152 73.4765V73.4765L128.089 73.1277ZM130.673 78.1262L129.916 78.7794L129.916 78.7794L130.673 78.1262ZM131.61 78.8835L131.956 77.9453L131.956 77.9453L131.61 78.8835ZM132.104 78.8564L132.514 79.7685L132.514 79.7685L132.104 78.8564ZM133.225 77.8265L134.018 78.4355L134.018 78.4355L133.225 77.8265ZM100 201C155.781 201 201 155.781 201 100H199C199 154.676 154.676 199 100 199V201ZM99 145V200H101V145H99ZM100 146H153V144H100V146ZM154 145V141H152V145H154ZM153 140H100V142H153V140ZM99 0V141H101V0H99ZM201 100C201 44.2192 155.781 -1 100 -1V1C154.676 1 199 45.3238 199 100H201ZM141.186 43.8079C138.601 60.1547 136.12 69.7496 133.895 74.6344L135.716 75.4631C138.063 70.3069 140.576 60.4704 143.162 44.1203L141.186 43.8079ZM145.293 43.445L142.33 42.9764L142.018 44.9518L144.981 45.4204L145.293 43.445ZM138.446 76.7063C140.979 71.1431 143.538 60.9446 146.125 44.5889L144.149 44.2765C141.563 60.6284 139.035 70.5856 136.626 75.8775L138.446 76.7063ZM136.397 80.2626C137.127 79.313 137.803 78.1174 138.446 76.7063L136.626 75.8775C136.022 77.2045 135.418 78.2548 134.811 79.0446L136.397 80.2626ZM133.744 82.5048C134.81 82.0256 135.679 81.1986 136.397 80.2626L134.811 79.0446C134.207 79.8316 133.581 80.3854 132.924 80.6806L133.744 82.5048ZM130.226 82.6364C131.377 83.061 132.598 83.0196 133.744 82.5048L132.924 80.6806C132.251 80.9829 131.572 81.0014 130.918 80.76L130.226 82.6364ZM127.644 80.7389C128.307 81.5074 129.156 82.2421 130.226 82.6364L130.918 80.76C130.279 80.5246 129.695 80.0543 129.159 79.4326L127.644 80.7389ZM124.34 74.5228C125.258 76.9896 126.337 79.2235 127.644 80.7389L129.159 79.4326C128.09 78.1935 127.11 76.2324 126.214 73.8252L124.34 74.5228ZM121.781 65.7729C122.547 68.9999 123.401 71.9999 124.34 74.5228L126.214 73.8253C125.314 71.4065 124.483 68.4924 123.727 65.311L121.781 65.7729ZM118.179 44.936C119.024 51.7692 120.248 59.315 121.781 65.7729L123.727 65.311C122.217 58.9473 121.004 51.4786 120.163 44.6903L118.179 44.936ZM122.025 43.4522L119.048 43.8207L119.294 45.8056L122.271 45.437L122.025 43.4522ZM126.646 64.618C125.169 58.3957 123.973 51.0428 123.141 44.3218L121.156 44.5674C121.993 51.3333 123.201 58.7635 124.7 65.08L126.646 64.618ZM129.026 72.7789C128.184 70.5165 127.385 67.7311 126.646 64.618L124.7 65.08C125.45 68.2386 126.271 71.1099 127.152 73.4765L129.026 72.7789ZM131.43 77.473C130.719 76.649 129.889 75.0981 129.026 72.7789L127.152 73.4765C128.036 75.854 128.966 77.6785 129.916 78.7794L131.43 77.473ZM131.956 77.9453C131.963 77.9481 131.776 77.8741 131.43 77.473L129.916 78.7794C130.389 79.3278 130.841 79.6658 131.264 79.8217L131.956 77.9453ZM131.694 77.9443C131.677 77.9518 131.722 77.9292 131.805 77.9262C131.892 77.923 131.951 77.9437 131.956 77.9453L131.264 79.8217C131.426 79.8817 131.633 79.9337 131.877 79.9249C132.118 79.9162 132.331 79.8508 132.514 79.7685L131.694 77.9443ZM132.432 77.2175C131.999 77.7808 131.737 77.9251 131.694 77.9443L132.514 79.7685C132.966 79.5654 133.471 79.1482 134.018 78.4355L132.432 77.2175ZM133.895 74.6344C133.349 75.8353 132.854 76.6677 132.432 77.2175L134.018 78.4355C134.563 77.7257 135.131 76.7481 135.716 75.4631L133.895 74.6344Z" fill="black" mask="url(#path-1-inside-1)"/>
<path d="M144.074 43.4829C133.452 110.061 123.66 71.5704 120.091 44.003" stroke="black" stroke-width="4"/>
<rect x="101" y="142" width="51" height="2" fill="#C4C4C4" stroke="black" stroke-width="2"/>
<mask id="path-5-inside-2" fill="white">
<path fill-rule="evenodd" clip-rule="evenodd" d="M0 100C0 155.228 44.7715 200 100 200V0C44.7715 0 0 44.7715 0 100Z"/>
</mask>
<path fill-rule="evenodd" clip-rule="evenodd" d="M0 100C0 155.228 44.7715 200 100 200V0C44.7715 0 0 44.7715 0 100Z" fill="#EEFF89"/>
<path d="M100 200V201H101V200H100ZM100 0H101V-1H100V0ZM100 199C45.3238 199 1 154.676 1 100H-1C-1 155.781 44.2192 201 100 201V199ZM99 0V200H101V0H99ZM1 100C1 45.3238 45.3238 1 100 1V-1C44.2192 -1 -1 44.2192 -1 100H1Z" fill="black" mask="url(#path-5-inside-2)"/>
<path d="M58 81C69.5657 15.8005 78.1524 53.8336 81 81" stroke="black" stroke-width="3"/>
<path fill-rule="evenodd" clip-rule="evenodd" d="M100 141.182V161.428C91.3753 161.46 82.2208 164.446 72.8178 171.669C61.6306 163.49 52.6614 151.515 47 141L100 141.182Z" fill="#F1F1F1"/>
<path d="M100 161.428L100.002 161.928L100.5 161.927V161.428H100ZM100 141.182H100.5V140.684L100.002 140.682L100 141.182ZM72.8178 171.669L72.5227 172.072L72.8252 172.293L73.1224 172.065L72.8178 171.669ZM47 141L47.0017 140.5L46.1614 140.497L46.5598 141.237L47 141ZM100.5 161.428V141.182H99.5V161.428H100.5ZM99.9982 160.928C91.2505 160.96 81.9917 163.991 72.5132 171.272L73.1224 172.065C82.4499 164.9 91.5001 161.959 100.002 161.928L99.9982 160.928ZM73.1129 171.265C62.0025 163.143 53.0775 151.233 47.4402 140.763L46.5598 141.237C52.2452 151.797 61.2587 163.838 72.5227 172.072L73.1129 171.265ZM46.9983 141.5L99.9983 141.682L100.002 140.682L47.0017 140.5L46.9983 141.5Z" fill="black"/>
<g filter="url(#filter0_d)">
<path fill-rule="evenodd" clip-rule="evenodd" d="M100 161.023C91.4044 161.313 82.3197 164.347 73 171.24C81.0253 176.89 90.1497 180.728 100 181.02V161.023Z" fill="#F36B6B"/>
<path d="M73 171.24L72.7027 170.838L72.1457 171.25L72.7122 171.649L73 171.24ZM100 161.023H100.5V160.506L99.9832 160.523L100 161.023ZM100 181.02L99.9852 181.52L100.5 181.535V181.02H100ZM73.2973 171.642C82.5452 164.802 91.5338 161.809 100.017 161.523L99.9832 160.523C91.275 160.817 82.0942 163.892 72.7027 170.838L73.2973 171.642ZM100.015 180.52C90.2878 180.231 81.2566 176.441 73.2878 170.832L72.7122 171.649C80.794 177.339 90.0115 181.224 99.9852 181.52L100.015 180.52ZM100.5 181.02V161.023H99.5V181.02H100.5Z" fill="black"/>
</g>
<defs>
<filter id="filter0_d" x="68.1457" y="160.506" width="36.3543" height="29.029" filterUnits="userSpaceOnUse" color-interpolation-filters="sRGB">
<feFlood flood-opacity="0" result="BackgroundImageFix"/>
<feColorMatrix in="SourceAlpha" type="matrix" values="0 0 0 0 0 0 0 0 0 0 0 0 0 0 0 0 0 0 127 0"/>
<feOffset dy="4"/>
<feGaussianBlur stdDeviation="2"/>
<feColorMatrix type="matrix" values="0 0 0 0 0 0 0 0 0 0 0 0 0 0 0 0 0 0 0.25 0"/>
<feBlend mode="normal" in2="BackgroundImageFix" result="effect1_dropShadow"/>
<feBlend mode="normal" in="SourceGraphic" in2="effect1_dropShadow" result="shape"/>
</filter>
</defs>
</svg>
